<svg width="15" height="14" viewBox="0 0 15 14" fill="none" xmlns="http://www.w3.org/2000/svg">
<path d="M7.80003 0C3.94024 0 0.800049 3.13949 0.800049 7.00002V12.6C0.800049 13.3728 1.42655 14 2.20005 14H3.60004C4.37284 14 5.00004 13.3728 5.00004 12.6V10.5C5.00004 9.72721 4.37284 9.10001 3.60004 9.10001H2.20005V7.00002C2.20005 3.91159 4.71234 1.4 7.80003 1.4C10.8877 1.4 13.4 3.91159 13.4 7.00002V9.10001H12C11.2272 9.10001 10.6 9.72721 10.6 10.5V12.6C10.6 13.3728 11.2272 14 12 14H13.4C14.1728 14 14.8 13.3728 14.8 12.6V7.00002C14.8 3.13949 11.6598 0 7.80003 0Z" fill="#B9BBBE"/>
</svg>
