<svg xmlns="http://www.w3.org/2000/svg" width="24" height="24" fill="white" style="width: 100%; height: 100%; transform: translate3d(0px, 0px, 0px); content-visibility: visible;"><defs><clipPath id="micro_svg__a"><path d="M0 0h24v24H0z"></path></clipPath><clipPath id="micro_svg__b"><path d="M0 0h600v600H0z"></path></clipPath><clipPath id="micro_svg__c"><path d="M0 0h1000v1000H0z"></path></clipPath><mask id="micro_svg__d"><path fill="#b5bac1fff" d="M200 200h600v600H200z"></path><path d="M1025.22-87.204 853.697 87.75s-63.937 67.482-14.56 117.112C893 259 957.68 191.056 957.68 191.056l171.523-174.954S1212-66 1160.215-115.554c-51.434-49.218-134.995 28.35-134.995 28.35"></path><path fill="#b5bac1fff" d="M698 405h-56v74h56z"></path></mask></defs><g clip-path="url(#micro_svg__a)"><g clip-path="url(#micro_svg__b)" transform="rotate(.012)scale(.04)" style="display: block;"><g clip-path="url(#micro_svg__c)" transform="translate(-200 -200)" style="display: block;"><g mask="url(#micro_svg__d)" style="display: block;"><path fill="#b5bac1" d="M600 349c0-55.225-44.775-100-100-100s-100 44.775-100 100v99c0 55.225 44.775 100 100 100s100-44.775 100-100z"></path><path fill="none" stroke="#b5bac1" stroke-linecap="round" stroke-width="50" d="M675 448c0 96.65-78.35 175-175 175s-175-78.35-175-175"></path><path fill="#b5bac1" d="M525 623c0-6.9-5.6-12.5-12.5-12.5h-25c-6.9 0-12.5 5.6-12.5 12.5v100c0 6.9 5.6 12.5 12.5 12.5h25c6.9 0 12.5-5.6 12.5-12.5z"></path><path fill="#b5bac1" d="M425 698c-13.8 0-25 11.2-25 25s11.2 25 25 25h150c13.8 0 25-11.2 25-25s-11.2-25-25-25z"></path></g></g></g></g></svg>