<svg width="20" height="20" viewBox="0 0 20 20" fill="none" xmlns="http://www.w3.org/2000/svg">
<path d="M5.58366 9.1665H4.16699C4.16699 10.1582 4.45033 11.0832 4.91699 11.8998L5.94199 10.8748C5.71699 10.3582 5.58366 9.78317 5.58366 9.1665Z" fill="#B5BAC1"/>
<path d="M7.50833 9.23734C7.5125 9.26025 7.51667 9.28317 7.51667 9.30817L12.5 4.3165V4.1665C12.5 2.78317 11.3833 1.6665 10 1.6665C8.61667 1.6665 7.5 2.78317 7.5 4.1665V9.1665C7.5 9.1915 7.50417 9.21442 7.50833 9.23734Z" fill="#B5BAC1"/>
<path d="M9.76928 13.4104L9.13553 14.0441L8.54395 14.6405C8.7477 14.694 8.95536 14.7364 9.1662 14.7665V18.3332H10.8329V14.7665C13.5662 14.3582 15.8329 12.0082 15.8329 9.1665H14.4162C14.4162 11.6665 12.2995 13.4165 9.99953 13.4165C9.92253 13.4165 9.84578 13.4144 9.76928 13.4104Z" fill="#B5BAC1"/>
<path d="M17.5 3.55833L16.4417 2.5L2.5 16.4417L3.55833 17.5L7.05 14.0167L8.075 12.9833L9.45833 11.6L12.4917 8.56667L17.5 3.55833Z" fill="#F23F42"/>
</svg>
