<svg width="15" height="14" viewBox="0 0 15 14" fill="none" xmlns="http://www.w3.org/2000/svg">
<path fill-rule="evenodd" clip-rule="evenodd" d="M13.2166 5.6H14.8V8.4H13.2173C13.0486 9.0517 12.77 9.6586 12.3955 10.1948L13.4 11.2L12 12.6L10.9955 11.5948C10.4579 11.9693 9.85245 12.2486 9.20005 12.4166V14H6.40005V12.4166C5.74835 12.2486 5.14215 11.9693 4.60525 11.5948L3.60005 12.6L2.20005 11.2L3.20525 10.1948C2.83075 9.6593 2.55145 9.0524 2.38345 8.4H0.800049V5.6H2.38345C2.55145 4.9476 2.83005 4.3414 3.20525 3.8052L2.20005 2.8L3.60005 1.4L4.60525 2.4052C5.14145 2.03 5.74765 1.7514 6.40005 1.5834V0H9.20005V1.5827C9.85245 1.7514 10.4579 2.03 10.9955 2.4045L12 1.3993L13.4 2.7993L12.3948 3.8052C12.7693 4.3414 13.0486 4.9483 13.2166 5.6ZM7.80005 9.8C9.34642 9.8 10.6 8.54637 10.6 7C10.6 5.4536 9.34642 4.2 7.80005 4.2C6.25365 4.2 5.00005 5.4536 5.00005 7C5.00005 8.54637 6.25365 9.8 7.80005 9.8Z" fill="#B9BBBE"/>
</svg>
